<svg width="140" height="40" viewBox="0 0 140 40" fill="none" xmlns="http://www.w3.org/2000/svg">
<path d="M10.2019 14.5112L0 8.56494V31.6173L7.96296 36.1877C8.63813 36.5713 9.40396 36.7734 10.1836 36.7737C10.9632 36.774 11.7292 36.5724 12.4046 36.1893C13.0801 35.8062 13.6412 35.255 14.0318 34.591C14.4223 33.927 14.6285 33.1736 14.6296 32.4064V22.0757C14.6294 20.5436 14.2203 19.0386 13.4432 17.711C12.6662 16.3835 11.5484 15.2801 10.2019 14.5112ZM9.81481 28.975C9.81477 29.2323 9.74551 29.485 9.61409 29.7075C9.48266 29.9299 9.29374 30.1142 9.06652 30.2415C8.8393 30.3689 8.58187 30.4348 8.3204 30.4325C8.05892 30.4303 7.8027 30.36 7.57778 30.2287L4.81481 28.6105V17.1299L7.63704 18.77C8.30157 19.1577 8.85193 19.7092 9.23382 20.37C9.61572 21.0309 9.81597 21.7783 9.81481 22.5385V28.975Z" fill="#53AD59"/>
<path d="M10.2019 14.5112L0 8.56494V31.6173L7.96296 36.1877C8.63813 36.5713 9.40396 36.7734 10.1836 36.7737C10.9632 36.774 11.7292 36.5724 12.4046 36.1893C13.0801 35.8062 13.6412 35.255 14.0318 34.591C14.4223 33.927 14.6285 33.1736 14.6296 32.4064V22.0757C14.6294 20.5436 14.2203 19.0386 13.4432 17.711C12.6662 16.3835 11.5484 15.2801 10.2019 14.5112ZM9.81481 28.975C9.81477 29.2323 9.74551 29.485 9.61409 29.7075C9.48266 29.9299 9.29374 30.1142 9.06652 30.2415C8.8393 30.3689 8.58187 30.4348 8.3204 30.4325C8.05892 30.4303 7.8027 30.36 7.57778 30.2287L4.81481 28.6105V17.1299L7.63704 18.77C8.30157 19.1577 8.85193 19.7092 9.23382 20.37C9.61572 21.0309 9.81597 21.7783 9.81481 22.5385V28.975Z" fill="url(#paint0_linear)"/>
<path d="M19.7981 14.5112C18.4516 15.2801 17.3338 16.3835 16.5568 17.711C15.7797 19.0386 15.3706 20.5436 15.3704 22.0757V40L20.3704 37.0843V31.4351L25 28.7016V34.3508L30 31.6173V8.56494L19.7981 14.5112ZM25.1852 23.0524L20.1852 25.7859V22.6296C20.185 21.8703 20.3857 21.124 20.7675 20.4642C21.1494 19.8044 21.6992 19.2538 22.363 18.8665L25.1852 17.2264V23.0524Z" fill="#53AD59"/>
<path d="M19.7981 14.5112C18.4516 15.2801 17.3338 16.3835 16.5568 17.711C15.7797 19.0386 15.3706 20.5436 15.3704 22.0757V40L20.3704 37.0843V31.4351L25 28.7016V34.3508L30 31.6173V8.56494L19.7981 14.5112ZM25.1852 23.0524L20.1852 25.7859V22.6296C20.185 21.8703 20.3857 21.124 20.7675 20.4642C21.1494 19.8044 21.6992 19.2538 22.363 18.8665L25.1852 17.2264V23.0524Z" fill="url(#paint1_linear)"/>
<path d="M15 0L0 8.56492L5 11.4806L15 5.83144V0Z" fill="url(#paint2_linear)"/>
<path d="M15 0L0 8.56492L5 11.4806L15 5.83144V0Z" fill="black" fill-opacity="0.2"/>
<path d="M15 0L30 8.56492L25 11.4806L15 5.83144V0Z" fill="url(#paint3_linear)"/>
<path d="M15 0L30 8.56492L25 11.4806L15 5.83144V0Z" fill="black" fill-opacity="0.12"/>
<path d="M9.96484 11.5754L15 8.71436L20.0352 11.5754L15 14.4365L9.96484 11.5754Z" fill="url(#paint4_linear)"/>
<path d="M45.72 13H39.66V27H42.9V23.14H45.72C49.46 23.14 51.8 21.2 51.8 18.08C51.8 14.94 49.46 13 45.72 13ZM45.54 20.5H42.9V15.64H45.54C47.52 15.64 48.52 16.54 48.52 18.08C48.52 19.6 47.52 20.5 45.54 20.5Z" fill="#25282B"/>
<path d="M58.9936 27.16C62.4136 27.16 64.8936 24.86 64.8936 21.62C64.8936 18.38 62.4136 16.08 58.9936 16.08C55.5736 16.08 53.0736 18.38 53.0736 21.62C53.0736 24.86 55.5736 27.16 58.9936 27.16ZM58.9936 24.6C57.4336 24.6 56.2336 23.48 56.2336 21.62C56.2336 19.76 57.4336 18.64 58.9936 18.64C60.5536 18.64 61.7336 19.76 61.7336 21.62C61.7336 23.48 60.5536 24.6 58.9936 24.6Z" fill="#25282B"/>
<path d="M69.959 17.66V16.24H66.979V27H70.099V21.92C70.099 19.86 71.239 18.92 72.959 18.92C73.199 18.92 73.399 18.94 73.659 18.96V16.08C71.999 16.08 70.719 16.62 69.959 17.66Z" fill="#25282B"/>
<path d="M81.9853 24.28C81.6453 24.54 81.1853 24.68 80.7253 24.68C79.8853 24.68 79.3853 24.18 79.3853 23.26V18.88H82.0653V16.48H79.3853V13.86H76.2653V16.48H74.6053V18.88H76.2653V23.3C76.2653 25.86 77.7453 27.16 80.2853 27.16C81.2453 27.16 82.1853 26.94 82.8253 26.48L81.9853 24.28Z" fill="#25282B"/>
<path d="M88.9167 16.08C87.1967 16.08 85.4567 16.54 84.2767 17.38L85.3967 19.56C86.1767 18.94 87.3567 18.56 88.4967 18.56C90.1767 18.56 90.9767 19.34 90.9767 20.68H88.4967C85.2167 20.68 83.8767 22 83.8767 23.9C83.8767 25.76 85.3767 27.16 87.8967 27.16C89.4767 27.16 90.5967 26.64 91.1767 25.66V27H94.0967V20.86C94.0967 17.6 92.1967 16.08 88.9167 16.08ZM88.6767 25.06C87.5767 25.06 86.9167 24.54 86.9167 23.76C86.9167 23.04 87.3767 22.5 88.8367 22.5H90.9767V23.6C90.6167 24.58 89.7167 25.06 88.6767 25.06Z" fill="#25282B"/>
<path d="M96.9204 27H100.04V12.16H96.9204V27Z" fill="#25282B"/>
<path d="M108.82 27H115.18C119.76 27 122.9 24.24 122.9 20C122.9 15.76 119.76 13 115.18 13H108.82V27ZM112.06 24.34V15.66H115.02C117.8 15.66 119.62 17.32 119.62 20C119.62 22.68 117.8 24.34 115.02 24.34H112.06Z" fill="#25282B"/>
<path d="M135.608 27H139.008L132.748 13H129.548L123.308 27H126.628L127.868 24H134.368L135.608 27ZM128.908 21.54L131.128 16.18L133.348 21.54H128.908Z" fill="#25282B"/>
<defs>
<linearGradient id="paint0_linear" x1="-2.22812e-07" y1="21.7269" x2="14.6154" y2="21.7269" gradientUnits="userSpaceOnUse">
<stop stop-color="#4B9C50"/>
<stop offset="1" stop-color="#53AD59"/>
</linearGradient>
<linearGradient id="paint1_linear" x1="15.3846" y1="26.5868" x2="30" y2="26.5868" gradientUnits="userSpaceOnUse">
<stop stop-color="#53AD59"/>
<stop offset="1" stop-color="#64B56A"/>
</linearGradient>
<linearGradient id="paint2_linear" x1="-2.94444e-06" y1="6.81346" x2="15" y2="6.81346" gradientUnits="userSpaceOnUse">
<stop stop-color="#4B9C50"/>
<stop offset="0.72349" stop-color="#53AD59"/>
<stop offset="1" stop-color="#4B9C50"/>
</linearGradient>
<linearGradient id="paint3_linear" x1="15" y1="6.81346" x2="30" y2="6.81346" gradientUnits="userSpaceOnUse">
<stop stop-color="#4B9C50"/>
<stop offset="0.25641" stop-color="#53AD59"/>
<stop offset="0.98" stop-color="#4B9C50"/>
</linearGradient>
<linearGradient id="paint4_linear" x1="15" y1="8.71436" x2="15" y2="14.4365" gradientUnits="userSpaceOnUse">
<stop stop-color="#4B9C50"/>
<stop offset="1" stop-color="#64B56A"/>
</linearGradient>
</defs>
</svg>
